<?xml version="1.0" encoding="utf-8"?>
<!-- Generator: Adobe Illustrator 25.0.0, SVG Export Plug-In . SVG Version: 6.00 Build 0)  -->
<svg version="1.1" id="图层_1" xmlns="http://www.w3.org/2000/svg" xmlns:xlink="http://www.w3.org/1999/xlink" x="0px" y="0px"
	 viewBox="0 0 100 100" style="enable-background:new 0 0 100 100;" xml:space="preserve">
<style type="text/css">
	.st0{fill:#28459A;}
	.st1{fill:#E43D30;}
</style>
<g>
	<path class="st0" d="M48.12,28.53L42.9,54.21L29.89,26.89c-1.18-2.47-3.67-4.04-6.4-4.04H12.03L1,77.15h10.13
		c3.37,0,6.28-2.38,6.95-5.68l5.12-25.18l12.77,26.81c1.18,2.47,3.67,4.04,6.4,4.04h11.79l11.03-54.3H55.07
		C51.7,22.85,48.79,25.22,48.12,28.53z"/>
	<path class="st1" d="M79.13,48.9l-0.02-0.02L99,22.85H86.15c-2.21,0-4.29,1.03-5.64,2.79l-17.57,23l11.07,24.36
		c1.15,2.53,3.68,4.16,6.46,4.16h11.48L79.11,48.91L79.13,48.9z"/>
</g>
</svg>
