<?xml version="1.0" encoding="utf-8"?>
<!-- Generator: Adobe Illustrator 25.0.0, SVG Export Plug-In . SVG Version: 6.00 Build 0)  -->
<svg version="1.1" id="图层_1" xmlns="http://www.w3.org/2000/svg" xmlns:xlink="http://www.w3.org/1999/xlink" x="0px" y="0px"
	 viewBox="0 0 140 31" width="1500px" height="300px" style="enable-background:new 0 0 140 31;" xml:space="preserve">
<style type="text/css">
	.st0{fill:#28459A;}
	.st1{fill:#E43D30;}
	.st2{fill:#FFFFFF;}
</style>
<path class="st0" d="M21.24,8.04l-2.19,10.77L13.6,7.35c-0.49-1.04-1.54-1.7-2.69-1.7h-4.8L1.49,28.42h4.25c1.41,0,2.63-1,2.91-2.38
	l2.14-10.56l5.36,11.24c0.49,1.04,1.54,1.7,2.69,1.7h4.95l4.63-22.77h-4.25C22.74,5.66,21.52,6.65,21.24,8.04z"/>
<path class="st1" d="M34.24,16.58L34.24,16.58l8.33-10.92h-5.39c-0.93,0-1.8,0.43-2.36,1.17l-7.37,9.64l4.64,10.21
	c0.48,1.06,1.54,1.74,2.71,1.74h4.81L34.24,16.58L34.24,16.58z"/>
<path class="st2" d="M73.89,8.66c-1.09,0-2.15,0.88-2.37,1.97l-3.62,17.8h2.78c1.09,0,2.15-0.88,2.37-1.97l3.62-17.8H73.89z"/>
<path class="st2" d="M98.31,8.66c-1.09,0-2.15,0.88-2.37,1.97l-3.62,17.8h2.78c1.09,0,2.15-0.88,2.37-1.97l3.62-17.8H98.31z"/>
<path class="st2" d="M66.53,8.66c-1.09,0-2.15,0.88-2.37,1.97l-1.68,8.27l-3.47-9.25c-0.23-0.61-0.8-0.98-1.5-0.98h-3.62
	l-4.02,19.77h2.78c1.09,0,2.15-0.88,2.37-1.97l1.69-8.32l3.46,9.3c0.23,0.61,0.8,0.99,1.51,0.99h3.61l4.02-19.77H66.53z"/>
<path class="st2" d="M119.38,8.65c-1.09,0-2.15,0.88-2.37,1.97l-3.62,17.8h11.65c1.09,0,2.15-0.88,2.37-1.97l0.57-2.78h-8.86
	l0.56-2.76h3.79c1.09,0,2.15-0.88,2.37-1.97l0.57-2.78h-5.76l0.56-2.76h6.9c1.09,0,2.15-0.88,2.37-1.97l0.57-2.78H119.38z"/>
<path class="st2" d="M91.19,8.43c-1.09,0-2.15,0.88-2.37,1.97l-2.27,11.08c-0.17,0.89-0.56,1.6-1.17,2.13
	c-0.62,0.54-1.33,0.81-2.14,0.81c-0.75,0-1.33-0.23-1.74-0.68c-0.41-0.45-0.58-1.05-0.52-1.81c0.02-0.21,0.04-0.36,0.06-0.45
	l2.67-13.05h-2.58c-1.09,0-2.15,0.88-2.37,1.97L76.5,21.48c-0.07,0.45-0.12,0.79-0.14,1.02c-0.15,1.81,0.33,3.25,1.42,4.32
	c1.09,1.07,2.63,1.61,4.63,1.61c1.45,0,2.78-0.29,4-0.86c1.21-0.57,2.23-1.39,3.05-2.44c0.82-1.05,1.37-2.27,1.65-3.64l2.67-13.05
	H91.19z"/>
<path class="st2" d="M106.03,18.31L115,8.65h-4.87c-0.63,0-1.28,0.3-1.76,0.81l-8.07,8.69c-0.21,0.23-0.27,0.54-0.16,0.77l4.54,8.69
	c0.27,0.51,0.8,0.81,1.43,0.81h4.87l-5.04-9.65C105.86,18.63,105.9,18.45,106.03,18.31z"/>
<path class="st2" d="M138.07,3.5c0.62,0.62,0.93,1.37,0.93,2.26c0,0.88-0.31,1.63-0.93,2.26c-0.62,0.62-1.38,0.93-2.26,0.93
	c-0.89,0-1.64-0.31-2.26-0.93c-0.62-0.63-0.93-1.38-0.93-2.26c0-0.89,0.31-1.64,0.93-2.26s1.37-0.93,2.26-0.93
	C136.7,2.58,137.45,2.88,138.07,3.5z M133.85,3.79c-0.54,0.54-0.82,1.19-0.82,1.97c0,0.77,0.27,1.42,0.82,1.97
	c0.54,0.54,1.2,0.82,1.97,0.82c0.76,0,1.41-0.27,1.97-0.82c0.54-0.55,0.82-1.21,0.82-1.97c0-0.77-0.27-1.42-0.82-1.97
	c-0.54-0.54-1.2-0.82-1.97-0.82C135.04,2.98,134.39,3.25,133.85,3.79z M134.34,3.86h1.61c0.39,0,0.71,0.09,0.94,0.27
	c0.24,0.19,0.36,0.46,0.36,0.82c0,0.44-0.2,0.74-0.61,0.89c0.2,0.05,0.35,0.17,0.44,0.37c0.06,0.14,0.1,0.33,0.12,0.57
	c0.03,0.41,0.12,0.7,0.27,0.88h-0.68c-0.1-0.17-0.16-0.43-0.18-0.78c-0.03-0.3-0.09-0.49-0.19-0.59c-0.11-0.13-0.31-0.19-0.59-0.19
	h-0.88v1.56h-0.6V3.86z M134.94,4.38v1.19h0.94c0.24,0,0.43-0.05,0.57-0.16c0.13-0.11,0.19-0.26,0.19-0.44
	c0-0.39-0.26-0.59-0.77-0.59H134.94z"/>
</svg>
