<?xml version="1.0" encoding="utf-8"?>
<!-- Generator: Adobe Illustrator 25.0.0, SVG Export Plug-In . SVG Version: 6.00 Build 0)  -->
<svg version="1.1" id="图层_1" xmlns="http://www.w3.org/2000/svg" xmlns:xlink="http://www.w3.org/1999/xlink" x="0px" y="0px"
	 viewBox="0 0 147 33" style="enable-background:new 0 0 147 33;" xml:space="preserve">
<style type="text/css">
	.st0{fill:#28459A;}
	.st1{fill:#E43D30;}
	.st2{fill:#292D32;}
</style>
<path class="st0" d="M21.83,8.63l-2.31,11.35L13.77,7.91c-0.52-1.09-1.62-1.79-2.83-1.79H5.88L1,30.13h4.48
	c1.49,0,2.78-1.05,3.07-2.51l2.26-11.13l5.65,11.85c0.52,1.09,1.62,1.79,2.83,1.79h5.21l4.88-24.01h-4.48
	C23.41,6.12,22.13,7.17,21.83,8.63z"/>
<path class="st1" d="M35.54,17.64l-0.01-0.01l8.79-11.51h-5.68c-0.98,0-1.9,0.46-2.49,1.23l-7.77,10.17l4.89,10.77
	c0.51,1.12,1.63,1.84,2.86,1.84h5.07L35.54,17.64L35.54,17.64z"/>
<path class="st2" d="M77.35,9.28c-1.15,0-2.26,0.93-2.5,2.08l-3.82,18.77h2.94c1.15,0,2.26-0.93,2.5-2.08l3.82-18.77H77.35z"/>
<path class="st2" d="M103.09,9.28c-1.15,0-2.26,0.93-2.5,2.08l-3.82,18.77h2.93c1.15,0,2.26-0.93,2.5-2.08l3.82-18.77H103.09z"/>
<path class="st2" d="M69.59,9.28c-1.15,0-2.26,0.93-2.5,2.08l-1.77,8.72l-3.66-9.76c-0.24-0.64-0.84-1.04-1.59-1.04h-3.81
	l-4.24,20.85h2.93c1.15,0,2.26-0.93,2.5-2.08l1.78-8.77l3.65,9.8c0.24,0.64,0.84,1.04,1.59,1.04h3.81l4.24-20.85H69.59z"/>
<path class="st2" d="M125.31,9.28c-1.15,0-2.26,0.93-2.5,2.08L119,30.13h12.28c1.15,0,2.26-0.93,2.5-2.08l0.6-2.93h-9.35l0.59-2.91
	h3.99c1.15,0,2.26-0.93,2.5-2.08l0.6-2.93h-6.07l0.59-2.91h7.27c1.15,0,2.26-0.93,2.5-2.08l0.6-2.93H125.31z"/>
<path class="st2" d="M95.59,9.04c-1.15,0-2.26,0.93-2.5,2.07L90.7,22.8c-0.17,0.93-0.59,1.68-1.24,2.25
	c-0.65,0.57-1.4,0.85-2.26,0.85c-0.79,0-1.41-0.24-1.83-0.71c-0.43-0.48-0.61-1.11-0.55-1.91c0.02-0.22,0.04-0.38,0.07-0.48
	l2.82-13.76h-2.72c-1.15,0-2.26,0.93-2.5,2.07L80.09,22.8c-0.08,0.48-0.13,0.83-0.15,1.07c-0.15,1.91,0.34,3.42,1.49,4.56
	c1.15,1.13,2.78,1.7,4.88,1.7c1.53,0,2.93-0.3,4.21-0.91c1.28-0.61,2.35-1.46,3.22-2.58c0.86-1.11,1.44-2.39,1.74-3.84l2.82-13.76
	H95.59z"/>
<path class="st2" d="M111.23,19.46l9.46-10.18h-5.13c-0.66,0-1.35,0.32-1.85,0.86l-8.51,9.16c-0.22,0.24-0.29,0.57-0.16,0.81
	l4.78,9.16c0.28,0.54,0.84,0.86,1.51,0.86h5.13l-5.32-10.18C111.06,19.8,111.1,19.61,111.23,19.46z"/>
<path class="st2" d="M145.02,3.85C145.67,4.5,146,5.29,146,6.23c0,0.92-0.33,1.72-0.98,2.38c-0.66,0.65-1.45,0.98-2.38,0.98
	c-0.94,0-1.73-0.33-2.38-0.98c-0.65-0.66-0.98-1.46-0.98-2.38c0-0.93,0.33-1.73,0.98-2.38s1.44-0.98,2.38-0.98
	C143.57,2.87,144.37,3.2,145.02,3.85z M140.57,4.16c-0.57,0.57-0.86,1.26-0.86,2.07c0,0.81,0.29,1.5,0.86,2.07
	c0.57,0.57,1.26,0.86,2.07,0.86c0.8,0,1.49-0.29,2.07-0.86c0.57-0.59,0.86-1.28,0.86-2.07c0-0.81-0.29-1.5-0.86-2.07
	c-0.57-0.57-1.26-0.86-2.07-0.86C141.83,3.3,141.14,3.58,140.57,4.16z M141.09,4.23h1.7c0.42,0,0.74,0.09,0.99,0.28
	c0.25,0.2,0.38,0.49,0.38,0.86c0,0.46-0.21,0.78-0.64,0.94c0.21,0.05,0.36,0.18,0.46,0.39c0.07,0.14,0.11,0.35,0.13,0.61
	c0.03,0.43,0.12,0.74,0.28,0.92h-0.71c-0.1-0.17-0.17-0.45-0.19-0.82c-0.03-0.31-0.1-0.52-0.2-0.62c-0.11-0.13-0.32-0.2-0.62-0.2
	h-0.93v1.65h-0.63V4.23z M141.72,4.77v1.26h1c0.25,0,0.46-0.06,0.61-0.17c0.13-0.12,0.2-0.27,0.2-0.46c0-0.42-0.27-0.62-0.81-0.62
	H141.72z"/>
</svg>
